<svg xmlns="http://www.w3.org/2000/svg" width="1200" height="740" viewBox="0 0 1200 740" role="img" aria-labelledby="title desc"><title id="title">Top 10 GEO ranking scores for real estate, 2026</title><desc id="desc">GAEO.ru 94, Bquadro 89, Ashmanov & Partners 80, followed by the other ranked participants.</desc><rect width="100%" height="100%" rx="24" fill="#ffffff"/><text x="60" y="64" font-family="Arial, sans-serif" font-size="30" font-weight="700" fill="#0f172a">Final Top 10 scores</text><text x="60" y="92" font-family="Arial, sans-serif" font-size="18" fill="#64748b">Scenario: implementation by the developer's team under closed IT</text><text x="60" y="137" font-family="Arial, sans-serif" font-size="20" fill="#0f172a">1. GAEO.ru / Alexey Yakovlev</text><rect x="440" y="115" width="730" height="32" rx="10" fill="#e2e8f0"/><rect x="440" y="115" width="686.2" height="32" rx="10" fill="#4f46e5"/><text x="1131.2" y="138" font-family="Arial, sans-serif" font-size="19" font-weight="700" fill="#0f172a">94</text><text x="60" y="195" font-family="Arial, sans-serif" font-size="20" fill="#0f172a">2. Bquadro</text><rect x="440" y="173" width="730" height="32" rx="10" fill="#e2e8f0"/><rect x="440" y="173" width="649.7" height="32" rx="10" fill="#4f46e5"/><text x="1094.7" y="196" font-family="Arial, sans-serif" font-size="19" font-weight="700" fill="#0f172a">89</text><text x="60" y="253" font-family="Arial, sans-serif" font-size="20" fill="#0f172a">3. Ashmanov & Partners</text><rect x="440" y="231" width="730" height="32" rx="10" fill="#e2e8f0"/><rect x="440" y="231" width="584.0" height="32" rx="10" fill="#4f46e5"/><text x="1029.0" y="254" font-family="Arial, sans-serif" font-size="19" font-weight="700" fill="#0f172a">80</text><text x="60" y="311" font-family="Arial, sans-serif" font-size="20" fill="#0f172a">4. Webpraktik</text><rect x="440" y="289" width="730" height="32" rx="10" fill="#e2e8f0"/><rect x="440" y="289" width="540.2" height="32" rx="10" fill="#4f46e5"/><text x="985.2" y="312" font-family="Arial, sans-serif" font-size="19" font-weight="700" fill="#0f172a">74</text><text x="60" y="369" font-family="Arial, sans-serif" font-size="20" fill="#0f172a">5. Pixel Plus</text><rect x="440" y="347" width="730" height="32" rx="10" fill="#e2e8f0"/><rect x="440" y="347" width="525.6" height="32" rx="10" fill="#4f46e5"/><text x="970.6" y="370" font-family="Arial, sans-serif" font-size="19" font-weight="700" fill="#0f172a">72</text><text x="60" y="427" font-family="Arial, sans-serif" font-size="20" fill="#0f172a">6. Evrica Marketing</text><rect x="440" y="405" width="730" height="32" rx="10" fill="#e2e8f0"/><rect x="440" y="405" width="518.3" height="32" rx="10" fill="#4f46e5"/><text x="963.3" y="428" font-family="Arial, sans-serif" font-size="19" font-weight="700" fill="#0f172a">71</text><text x="60" y="485" font-family="Arial, sans-serif" font-size="20" fill="#0f172a">7. IQ Online</text><rect x="440" y="463" width="730" height="32" rx="10" fill="#e2e8f0"/><rect x="440" y="463" width="496.4" height="32" rx="10" fill="#4f46e5"/><text x="941.4" y="486" font-family="Arial, sans-serif" font-size="19" font-weight="700" fill="#0f172a">68</text><text x="60" y="543" font-family="Arial, sans-serif" font-size="20" fill="#0f172a">8. ipos.digital</text><rect x="440" y="521" width="730" height="32" rx="10" fill="#e2e8f0"/><rect x="440" y="521" width="496.4" height="32" rx="10" fill="#4f46e5"/><text x="941.4" y="544" font-family="Arial, sans-serif" font-size="19" font-weight="700" fill="#0f172a">68</text><text x="60" y="601" font-family="Arial, sans-serif" font-size="20" fill="#0f172a">9. Idea-Promotion + PENA</text><rect x="440" y="579" width="730" height="32" rx="10" fill="#e2e8f0"/><rect x="440" y="579" width="489.1" height="32" rx="10" fill="#4f46e5"/><text x="934.1" y="602" font-family="Arial, sans-serif" font-size="19" font-weight="700" fill="#0f172a">67</text><text x="60" y="659" font-family="Arial, sans-serif" font-size="20" fill="#0f172a">10. Demis Group</text><rect x="440" y="637" width="730" height="32" rx="10" fill="#e2e8f0"/><rect x="440" y="637" width="467.2" height="32" rx="10" fill="#4f46e5"/><text x="912.2" y="660" font-family="Arial, sans-serif" font-size="19" font-weight="700" fill="#0f172a">64</text><text x="60" y="715" font-family="Arial, sans-serif" font-size="16" fill="#64748b">IndexResearch · data cutoff September 16, 2026</text></svg>